<?xml version="1.0" encoding="utf-8"?>
<!-- Generator: Adobe Illustrator 26.5.0, SVG Export Plug-In . SVG Version: 6.00 Build 0)  -->
<svg version="1.0" id="katman_1" xmlns="http://www.w3.org/2000/svg" xmlns:xlink="http://www.w3.org/1999/xlink" x="0px" y="0px"
	 viewBox="0 0 1190.55 841.89" style="enable-background:new 0 0 1190.55 841.89;" xml:space="preserve">
<style type="text/css">
	.st0{fill:#010202;}
</style>
<g id="Page-1">
	<g id="logo">
		<path id="Shape" class="st0" d="M212.59,359.33l-57.79,36.89l57.79,36.89l-57.79,36.89L97,432.8l57.79-36.89L97,359.33
			l57.79-36.89L212.59,359.33z M154.49,481.67l57.79-36.89l57.79,36.89l-57.79,36.89L154.49,481.67z M212.59,432.8l57.79-36.89
			l-57.79-36.58l57.49-36.89l57.79,36.89l-57.79,36.89l57.79,36.89l-57.79,36.89L212.59,432.8z M373.05,359.33h46.73
			c29.82,0,54.41,17.21,54.41,56.56v8.3c0,39.66-23.06,57.49-53.49,57.49h-47.65V359.33z M399.18,381.46v77.77h19.98
			c16.91,0,28.28-11.07,28.28-35.66v-6.46c0-24.59-11.99-35.66-29.2-35.66H399.18z M488.02,382.69h20.9l3.38,23.06
			c4-15.68,14.14-23.98,32.59-23.98h6.46v26.44h-10.76c-21.21,0-26.44,7.38-26.44,28.28v45.5h-25.82v-99.29H488.02z M556.57,434.33
			v-2.77c0-33.2,21.21-51.34,50.11-51.34c29.51,0,50.11,18.14,50.11,51.34v2.77c0,32.59-19.98,50.11-50.11,50.11
			C574.71,484.13,556.57,466.92,556.57,434.33L556.57,434.33z M630.35,434.03v-2.46c0-18.44-9.22-29.51-23.98-29.51
			c-14.45,0-23.98,10.14-23.98,29.51v2.46c0,17.83,9.22,27.97,23.98,27.97C621.13,461.69,630.35,451.86,630.35,434.03z
			 M670.31,382.69h21.52l2.46,18.75c5.23-12.6,16.29-21.21,32.59-21.21c25.21,0,41.81,18.14,41.81,51.64v2.77
			c0,32.59-18.44,49.8-41.81,49.8c-15.68,0-26.44-7.07-31.66-18.44v50.11h-25.21L670.31,382.69z M742.56,434.03v-2.15
			c0-19.67-10.14-29.51-23.67-29.51c-14.45,0-23.98,11.07-23.98,29.51v1.84c0,17.52,9.22,28.59,23.67,28.59
			C733.33,462,742.56,452.47,742.56,434.03z M806.8,463.54l-2.15,18.14h-22.13V349.49h25.21v50.72
			c5.53-12.91,16.6-19.98,32.28-19.98c23.67,0.31,41.19,16.6,41.19,49.49v3.07c0,32.89-16.6,51.64-41.81,51.64
			C822.79,484.13,812.03,476.45,806.8,463.54z M854.76,432.8v-2.46c0-18.14-9.84-28.28-23.67-28.28
			c-14.14,0-23.98,11.37-23.98,28.59v2.15c0,18.44,9.53,29.2,23.67,29.2C845.84,462,854.76,452.47,854.76,432.8L854.76,432.8z
			 M892.26,434.33v-2.77c0-33.2,21.21-51.34,50.11-51.34c29.51,0,50.11,18.14,50.11,51.34v2.77c0,32.59-20.29,50.11-50.11,50.11
			C910.4,484.13,892.26,466.92,892.26,434.33L892.26,434.33z M966.35,434.03v-2.46c0-18.44-9.22-29.51-23.98-29.51
			c-14.45,0-23.98,10.14-23.98,29.51v2.46c0,17.83,9.22,27.97,23.98,27.97C957.13,461.69,966.35,451.86,966.35,434.03z
			 M1026.29,430.34l-34.74-47.65h29.82l19.98,29.82l20.29-29.82h29.51l-35.35,47.34l37.2,51.64h-29.2l-22.75-32.89l-22.13,32.89
			h-30.43L1026.29,430.34z"/>
	</g>
</g>
</svg>
