<?xml version="1.0" standalone="no"?>
<!DOCTYPE svg PUBLIC "-//W3C//DTD SVG 20010904//EN"
 "http://www.w3.org/TR/2001/REC-SVG-20010904/DTD/svg10.dtd">
<svg version="1.0" xmlns="http://www.w3.org/2000/svg"
 width="2000.000000pt" height="599.000000pt" viewBox="0 0 2000.000000 599.000000"
 preserveAspectRatio="xMidYMid meet">

<g transform="translate(0.000000,599.000000) scale(0.100000,-0.100000)"
fill="#000000" stroke="none">
<path d="M2845 5939 c-680 -54 -1339 -363 -1835 -859 -720 -720 -1015 -1749
-788 -2750 197 -869 789 -1610 1598 -1999 318 -153 611 -234 1005 -281 135
-15 550 -5 700 18 630 97 1180 367 1624 796 693 671 1012 1601 875 2561 -47
332 -164 685 -325 978 -138 253 -301 470 -508 678 -623 623 -1455 928 -2346
858z m250 -1569 c722 -52 1347 -212 1866 -476 190 -97 237 -133 275 -209 71
-146 0 -317 -154 -375 -96 -36 -134 -28 -339 77 -199 102 -294 143 -468 202
-306 103 -603 166 -1026 217 -182 21 -763 30 -969 15 -298 -23 -602 -73 -816
-135 -151 -44 -232 -29 -321 59 -106 107 -110 259 -9 372 52 58 83 72 231 112
231 62 584 119 860 140 161 12 708 13 870 1z m-40 -1026 c312 -31 675 -107
940 -196 344 -116 730 -305 804 -395 108 -131 26 -342 -144 -367 -62 -10 -115
7 -227 74 -110 65 -289 147 -453 209 -462 173 -1052 260 -1571 231 -300 -16
-478 -43 -747 -112 -179 -46 -215 -46 -290 2 -67 42 -102 107 -102 190 1 102
44 169 135 209 98 43 456 120 684 147 302 36 666 39 971 8z m-60 -955 c452
-45 871 -165 1221 -350 170 -89 220 -125 243 -173 64 -132 -38 -282 -179 -263
-21 3 -96 37 -167 76 -449 247 -909 357 -1488 354 -310 -1 -679 -42 -955 -107
-130 -31 -202 -12 -257 66 -21 31 -26 50 -26 97 0 72 27 121 86 155 69 40 531
122 817 145 139 11 591 11 705 0z"/>
<path d="M15420 4574 c-140 -51 -219 -161 -220 -305 0 -100 21 -157 82 -224
70 -77 139 -109 237 -109 142 1 262 82 311 212 44 115 14 254 -72 343 -82 85
-232 121 -338 83z"/>
<path d="M16725 4455 c-308 -58 -475 -291 -475 -662 l0 -103 -102 0 c-57 0
-113 -3 -126 -6 l-22 -6 2 -227 3 -226 123 -3 122 -3 0 -794 0 -795 23 -5 c12
-3 128 -4 257 -3 l235 3 3 798 2 797 214 0 214 0 20 -47 c23 -54 596 -1428
620 -1485 14 -35 13 -39 -13 -85 -38 -65 -97 -120 -142 -132 -80 -23 -184 -7
-292 42 -29 14 -59 23 -66 21 -15 -6 -175 -351 -175 -376 0 -33 190 -114 324
-137 87 -16 290 -13 364 4 92 22 178 69 250 139 132 126 175 211 407 811 651
1683 648 1675 635 1690 -10 13 -54 15 -265 15 -190 0 -255 -3 -262 -12 -5 -7
-39 -98 -76 -203 -36 -104 -129 -370 -206 -590 -77 -220 -155 -444 -173 -497
-18 -54 -35 -98 -38 -98 -4 0 -12 17 -19 38 -7 20 -80 210 -161 422 -82 212
-173 450 -203 530 -30 80 -78 205 -107 278 l-51 132 -401 0 -400 0 4 93 c6
137 47 202 142 228 55 15 193 5 285 -21 56 -16 76 -18 87 -9 11 9 14 54 14
220 0 243 13 219 -134 250 -124 27 -336 33 -441 14z"/>
<path d="M7785 4354 c-367 -65 -624 -276 -707 -580 -27 -102 -30 -314 -5 -416
76 -307 314 -476 867 -614 374 -93 508 -154 562 -258 30 -55 31 -173 3 -231
-68 -140 -265 -212 -515 -186 -233 23 -425 106 -642 277 -86 67 -87 68 -104
56 -29 -19 -294 -346 -294 -363 0 -11 28 -41 69 -75 222 -182 492 -306 771
-356 151 -26 404 -29 538 -4 459 84 732 384 732 806 0 369 -195 596 -641 744
-57 19 -183 55 -279 80 -287 74 -400 118 -475 187 -58 54 -78 99 -78 179 -2
121 74 214 211 262 96 33 290 32 412 -2 145 -40 322 -127 439 -214 19 -14 42
-26 52 -26 17 0 279 358 279 383 0 19 -42 56 -130 114 -137 91 -309 168 -467
208 -176 44 -441 57 -598 29z"/>
<path d="M13995 4218 c-3 -7 -6 -130 -7 -273 l-3 -260 -114 -3 c-64 -1 -121
-8 -128 -14 -16 -13 -19 -398 -3 -429 10 -17 22 -19 130 -19 l119 0 3 -597 c3
-596 3 -598 27 -668 83 -252 265 -365 583 -365 137 0 256 25 363 74 l75 35 -2
213 -3 213 -30 -2 c-16 0 -64 -14 -105 -29 -105 -38 -235 -40 -299 -4 -27 16
-51 40 -65 65 -21 39 -21 50 -24 553 l-3 512 259 0 c187 0 261 3 270 12 13 13
18 401 6 432 -5 14 -39 16 -270 16 l-264 0 -2 273 -3 272 -253 3 c-197 2 -254
0 -257 -10z"/>
<path d="M10191 3700 c-142 -38 -321 -148 -398 -244 l-28 -36 -5 127 -5 128
-255 0 -255 0 0 -1325 0 -1325 255 0 255 0 3 418 2 417 79 -67 c99 -86 185
-137 283 -168 339 -107 698 -18 948 236 194 197 292 459 292 784 1 524 -246
895 -692 1040 -75 25 -103 28 -245 32 -136 3 -171 0 -234 -17z m224 -455 c185
-47 321 -180 386 -376 21 -65 24 -92 24 -219 0 -133 -2 -152 -28 -227 -64
-186 -193 -314 -362 -359 -59 -16 -202 -18 -265 -3 -142 33 -278 146 -348 290
-185 379 13 839 388 902 58 10 150 6 205 -8z"/>
<path d="M12386 3704 c-332 -66 -617 -278 -763 -569 -79 -156 -113 -305 -113
-490 0 -256 75 -474 229 -667 205 -256 517 -400 863 -399 643 3 1126 501 1095
1130 -12 258 -111 490 -288 675 -160 169 -357 276 -589 320 -102 20 -337 20
-434 0z m379 -476 c154 -44 273 -149 349 -307 89 -186 72 -461 -40 -629 -102
-154 -284 -252 -469 -252 -211 0 -412 128 -505 322 -92 190 -89 417 5 597 128
242 388 348 660 269z"/>
<path d="M19441 3675 c-187 -53 -287 -262 -211 -440 27 -63 101 -138 163 -166
77 -35 192 -34 267 2 68 32 122 86 156 155 120 245 -112 522 -375 449z m199
-46 c55 -25 114 -80 143 -134 32 -58 31 -203 0 -260 -54 -99 -152 -159 -259
-158 -159 1 -284 130 -284 291 0 111 82 230 184 266 62 22 162 20 216 -5z"/>
<path d="M19400 3371 l0 -171 30 0 30 0 0 60 0 60 34 0 c31 0 39 -6 77 -60 39
-56 45 -60 81 -60 44 0 45 -3 -14 78 l-39 52 25 11 c34 16 60 72 52 113 -4 18
-18 44 -32 57 -23 22 -36 24 -135 27 l-109 4 0 -171z m194 93 c21 -20 20 -43
-1 -66 -12 -13 -31 -18 -75 -18 l-58 0 0 50 0 50 59 0 c41 0 65 -5 75 -16z"/>
<path d="M15267 3674 c-4 -4 -7 -465 -7 -1025 l0 -1019 23 -5 c12 -3 128 -4
257 -3 l235 3 0 1025 0 1025 -251 3 c-138 1 -253 -1 -257 -4z"/>
</g>
</svg>
