<?xml version="1.0" standalone="no"?>
<!DOCTYPE svg PUBLIC "-//W3C//DTD SVG 20010904//EN"
 "http://www.w3.org/TR/2001/REC-SVG-20010904/DTD/svg10.dtd">
<svg version="1.0" xmlns="http://www.w3.org/2000/svg"
 width="512.000000pt" height="512.000000pt" viewBox="0 0 512.000000 512.000000"
 preserveAspectRatio="xMidYMid meet">

<g transform="translate(0.000000,512.000000) scale(0.100000,-0.100000)"
fill="#000000" stroke="none">
<path d="M4 3125 c-11 -26 14 -115 41 -150 49 -65 67 -69 399 -73 l299 -4
-342 -342 c-339 -339 -341 -341 -341 -383 0 -53 14 -90 48 -127 57 -61 52 -60
571 -64 l474 -4 -6 55 c-7 68 -27 108 -72 143 -47 36 -119 43 -425 44 l-245 0
343 343 342 342 0 44 c0 67 -33 126 -88 159 l-47 27 -472 3 c-437 4 -473 3
-479 -13z"/>
<path d="M1502 3114 c-95 -25 -164 -66 -238 -139 -113 -112 -167 -246 -167
-415 0 -169 54 -303 167 -415 114 -113 224 -155 404 -155 181 0 302 47 412
159 108 110 160 244 160 411 0 272 -160 490 -407 554 -76 20 -258 20 -331 0z
m300 -243 c121 -59 199 -172 206 -301 3 -59 0 -87 -17 -130 -28 -76 -106 -161
-179 -197 -50 -24 -69 -28 -147 -28 -76 0 -99 4 -146 26 -70 33 -130 91 -165
161 -39 76 -45 190 -13 273 29 78 104 158 184 197 55 26 68 29 145 26 63 -3
97 -10 132 -27z"/>
<path d="M2721 3114 c-88 -24 -171 -74 -252 -154 -184 -181 -228 -425 -119
-658 31 -66 55 -99 112 -156 117 -115 241 -167 402 -167 166 -1 287 51 411
176 117 117 175 247 175 390 -1 242 -183 485 -421 560 -93 29 -219 33 -308 9z
m296 -244 c79 -39 154 -120 183 -198 29 -76 25 -186 -8 -254 -37 -74 -96 -134
-170 -170 -59 -29 -76 -33 -147 -33 -103 1 -183 35 -251 107 -61 65 -86 125
-92 218 -7 126 46 232 153 305 105 73 217 81 332 25z"/>
<path d="M3510 2559 l0 -571 59 4 c45 3 68 11 95 32 70 53 70 55 76 407 l5
316 30 48 c60 96 195 136 292 86 44 -22 98 -78 116 -120 7 -16 13 -142 16
-336 7 -345 7 -348 77 -401 27 -21 50 -29 94 -32 l59 -4 3 378 3 379 27 46
c62 105 195 143 304 86 36 -19 91 -78 106 -116 7 -16 14 -144 17 -336 5 -262
9 -315 23 -340 35 -65 88 -95 164 -95 l44 0 0 359 c0 198 -5 382 -10 412 -13
68 -58 161 -104 215 -143 167 -408 204 -596 84 -25 -16 -56 -41 -69 -54 l-23
-24 -61 49 c-84 67 -149 91 -269 97 -102 5 -162 -8 -240 -51 -36 -19 -39 -20
-57 -3 -25 23 -114 56 -151 56 l-30 0 0 -571z"/>
</g>
</svg>
